<svg width="54" height="49" viewBox="0 0 54 49" fill="none" xmlns="http://www.w3.org/2000/svg">
<path d="M47.3172 30.5H19.8349L20.4485 33.5H45.6127C47.0565 33.5 48.1267 34.8407 47.8067 36.2487L47.2895 38.5245C49.0417 39.3751 50.25 41.1714 50.25 43.25C50.25 46.1752 47.8576 48.5416 44.9227 48.4994C42.1268 48.4592 39.8274 46.1903 39.752 43.395C39.7107 41.8681 40.3224 40.4842 41.3273 39.4999H21.6727C22.6456 40.453 23.25 41.7806 23.25 43.25C23.25 46.2325 20.763 48.6342 17.7497 48.4942C15.0741 48.37 12.898 46.2081 12.7574 43.5332C12.6488 41.4675 13.7358 39.6468 15.3872 38.697L8.80153 6.5H2.25C1.00734 6.5 0 5.49266 0 4.25V2.75C0 1.50734 1.00734 0.5 2.25 0.5H11.8621C12.9309 0.5 13.8522 1.25197 14.0664 2.29906L14.9257 6.5H51.7491C53.1929 6.5 54.2631 7.84072 53.9431 9.24866L49.5112 28.7487C49.2785 29.7731 48.3678 30.5 47.3172 30.5ZM38.25 16.25H33.75V12.5C33.75 11.6715 33.0785 11 32.25 11H30.75C29.9215 11 29.25 11.6715 29.25 12.5V16.25H24.75C23.9215 16.25 23.25 16.9215 23.25 17.75V19.25C23.25 20.0785 23.9215 20.75 24.75 20.75H29.25V24.5C29.25 25.3285 29.9215 26 30.75 26H32.25C33.0785 26 33.75 25.3285 33.75 24.5V20.75H38.25C39.0785 20.75 39.75 20.0785 39.75 19.25V17.75C39.75 16.9215 39.0785 16.25 38.25 16.25Z" fill="white"/>
</svg>
