<svg width="37" height="35" viewBox="0 0 37 35" fill="none" xmlns="http://www.w3.org/2000/svg">
<path d="M12.5 35.0005C13.8807 35.0005 15 33.8812 15 32.5005C15 31.1198 13.8807 30.0005 12.5 30.0005C11.1193 30.0005 10 31.1198 10 32.5005C10 33.8812 11.1193 35.0005 12.5 35.0005Z" fill="#FF2E2E"/>
<path d="M30 35.0005C31.3807 35.0005 32.5 33.8812 32.5 32.5005C32.5 31.1198 31.3807 30.0005 30 30.0005C28.6193 30.0005 27.5 31.1198 27.5 32.5005C27.5 33.8812 28.6193 35.0005 30 35.0005Z" fill="#FF2E2E"/>
<path d="M35 6.25025H7.275L6.25 1.00025C6.19156 0.713659 6.03447 0.456632 5.80607 0.273914C5.57767 0.0911957 5.29243 -0.00564311 5 0.000254299H0V2.50025H3.975L8.75 26.5003C8.80844 26.7868 8.96553 27.0439 9.19393 27.2266C9.42233 27.4093 9.70757 27.5061 10 27.5003H32.5V25.0003H11.025L10 20.0003H32.5C32.789 20.0073 33.0714 19.914 33.2993 19.7363C33.5272 19.5585 33.6865 19.3072 33.75 19.0253L36.25 7.77525C36.2919 7.58979 36.2909 7.3972 36.2471 7.21217C36.2034 7.02713 36.118 6.85452 35.9975 6.70747C35.8769 6.56041 35.7244 6.4428 35.5516 6.36357C35.3787 6.28434 35.1901 6.24558 35 6.25025ZM31.5 17.5003H9.525L7.775 8.75025H33.4375L31.5 17.5003Z" fill="#FF2E2E"/>
</svg>
