<svg width="24" height="24" viewBox="0 0 24 24" fill="none" xmlns="http://www.w3.org/2000/svg">
<path fill-rule="evenodd" clip-rule="evenodd" d="M0.605986 0.605986C1.41397 -0.201995 2.72396 -0.201995 3.53195 0.605986L12 9.07404L20.4681 0.605986C21.276 -0.201995 22.586 -0.201995 23.394 0.605986C24.202 1.41397 24.202 2.72396 23.394 3.53195L14.926 12L23.394 20.4681C24.202 21.276 24.202 22.586 23.394 23.394C22.586 24.202 21.276 24.202 20.4681 23.394L12 14.926L3.53195 23.394C2.72396 24.202 1.41397 24.202 0.605986 23.394C-0.201995 22.586 -0.201995 21.276 0.605986 20.4681L9.07404 12L0.605986 3.53195C-0.201995 2.72396 -0.201995 1.41397 0.605986 0.605986Z" fill="white"/>
</svg>
