<svg width="31" height="18" viewBox="0 0 31 18" fill="none" xmlns="http://www.w3.org/2000/svg">
<path d="M10.1045 16.75C10.1045 16.4185 10.2362 16.1005 10.4706 15.8661C10.705 15.6317 11.023 15.5 11.3545 15.5H18.8545C19.186 15.5 19.504 15.6317 19.7384 15.8661C19.9728 16.1005 20.1045 16.4185 20.1045 16.75C20.1045 17.0815 19.9728 17.3995 19.7384 17.6339C19.504 17.8683 19.186 18 18.8545 18H11.3545C11.023 18 10.705 17.8683 10.4706 17.6339C10.2362 17.3995 10.1045 17.0815 10.1045 16.75ZM5.10449 9.25C5.10449 8.91848 5.23619 8.60054 5.47061 8.36612C5.70503 8.1317 6.02297 8 6.35449 8H23.8545C24.186 8 24.504 8.1317 24.7384 8.36612C24.9728 8.60054 25.1045 8.91848 25.1045 9.25C25.1045 9.58152 24.9728 9.89946 24.7384 10.1339C24.504 10.3683 24.186 10.5 23.8545 10.5H6.35449C6.02297 10.5 5.70503 10.3683 5.47061 10.1339C5.23619 9.89946 5.10449 9.58152 5.10449 9.25ZM0.104492 1.75C0.104492 1.41848 0.236188 1.10054 0.470609 0.866117C0.705029 0.631696 1.02297 0.5 1.35449 0.5H28.8545C29.186 0.5 29.504 0.631696 29.7384 0.866117C29.9728 1.10054 30.1045 1.41848 30.1045 1.75C30.1045 2.08152 29.9728 2.39946 29.7384 2.63388C29.504 2.8683 29.186 3 28.8545 3H1.35449C1.02297 3 0.705029 2.8683 0.470609 2.63388C0.236188 2.39946 0.104492 2.08152 0.104492 1.75Z" fill="#5D5D5D"/>
</svg>
