<svg width="24" height="20" viewBox="0 0 24 20" fill="none" xmlns="http://www.w3.org/2000/svg">
<path d="M21.6 19.7715H2.4C1.76348 19.7715 1.15303 19.5187 0.702944 19.0686C0.252856 18.6185 0 18.0081 0 17.3715V2.86713C0.0269192 2.24888 0.291611 1.66492 0.738814 1.23717C1.18602 0.809425 1.78116 0.570949 2.4 0.571534H21.6C22.2365 0.571534 22.847 0.824391 23.2971 1.27448C23.7471 1.72457 24 2.33501 24 2.97153V17.3715C24 18.0081 23.7471 18.6185 23.2971 19.0686C22.847 19.5187 22.2365 19.7715 21.6 19.7715ZM2.4 5.21313V17.3715H21.6V5.21313L12 11.6115L2.4 5.21313ZM3.36 2.97153L12 8.73153L20.64 2.97153H3.36Z" fill="white"/>
</svg>
