<svg width="121" height="40" viewBox="0 0 121 40" fill="none" xmlns="http://www.w3.org/2000/svg">
<path d="M102.2 0.0938967C104.638 0.751174 106.701 1.50235 106.232 3.00469L99.6685 26.5728C98.2621 30.6103 95.168 33.4272 87.8546 33.1455C82.5101 33.0516 79.9786 31.0798 80.1661 27.3239L86.7294 2.723C87.4795 1.31455 88.9797 0.751174 90.5736 0.0938967H4.59431C7.87596 1.50235 9.56367 3.47418 8.81358 6.38498L8.71981 6.76056H18.9398H34.3167C37.3171 6.94836 38.3485 8.73239 38.1609 11.0798C37.8797 14.2723 35.0668 16.7136 28.9723 17.1831H11.0638L16.502 15.493L16.5958 15.2113H6.56331L0 40H2.43779H15.5644C12.564 38.9671 11.2514 37.277 11.5327 35.0235L14.533 23.2864H22.3152C26.2532 23.8498 29.9099 30.5164 33.3791 40H46.9745L43.4116 37.3709C40.88 32.1127 37.7859 26.7606 33.6604 22.723C49.2248 20.8451 52.1314 10.3286 45.7556 3.84977L50.0687 6.85446H57.7571L48.9435 40H65.0705C61.6013 38.4038 60.1949 36.8075 61.0387 34.1784L68.1646 6.76056H79.7911L74.4467 9.10798L70.2274 26.0094C69.5711 35.3991 75.8531 39.6244 87.292 39.9061C110.826 40.7512 111.107 24.1315 116.827 2.62911C117.483 1.40845 119.265 0.751174 120.952 0H102.2V0.0938967Z" fill="#FF2E2E"/>
</svg>
