<svg width="41" height="40" viewBox="0 0 41 40" fill="none" xmlns="http://www.w3.org/2000/svg">
<path d="M20.5 0C9.45536 0 0.5 8.95536 0.5 20C0.5 31.0446 9.45536 40 20.5 40C31.5446 40 40.5 31.0446 40.5 20C40.5 8.95536 31.5446 0 20.5 0ZM30.1116 15.0759C30.125 15.2857 30.125 15.5045 30.125 15.7188C30.125 22.2723 25.1339 29.8214 16.0134 29.8214C13.2009 29.8214 10.5938 29.0045 8.39732 27.5982C8.79911 27.6429 9.18304 27.6607 9.59375 27.6607C11.9152 27.6607 14.0491 26.875 15.75 25.5446C13.5714 25.5 11.7411 24.0714 11.1161 22.1071C11.8795 22.2188 12.567 22.2188 13.3527 22.0179C12.2309 21.79 11.2227 21.1807 10.4992 20.2937C9.7757 19.4066 9.38164 18.2965 9.38393 17.1518V17.0893C10.0402 17.4598 10.8125 17.6875 11.6205 17.7188C10.9413 17.266 10.3842 16.6527 9.99871 15.9332C9.61323 15.2136 9.41127 14.4101 9.41072 13.5938C9.41072 12.6696 9.65179 11.8259 10.0848 11.0938C11.3299 12.6265 12.8836 13.8801 14.6449 14.7731C16.4062 15.666 18.3358 16.1784 20.308 16.2768C19.6071 12.9063 22.125 10.1786 25.1518 10.1786C26.5804 10.1786 27.8661 10.7768 28.7723 11.7411C29.8929 11.5312 30.9643 11.1116 31.9196 10.5491C31.5491 11.6964 30.7723 12.6652 29.7411 13.2768C30.7411 13.1696 31.7054 12.8929 32.5982 12.5045C31.9241 13.4955 31.0804 14.375 30.1116 15.0759Z" fill="#FF2E2E"/>
</svg>
