<svg width="41" height="40" viewBox="0 0 41 40" fill="none" xmlns="http://www.w3.org/2000/svg">
<path d="M37.5085 9.24976C31.525 -0.000305774 19.3087 -2.75033 9.83481 2.99972C0.610229 8.74976 -2.38153 21.2499 3.60199 30.4999L4.10061 31.2499L2.10611 38.75L9.5855 36.75L10.3334 37.25C13.5745 39 17.0649 40 20.5553 40C24.295 40 28.0347 39 31.2757 37C40.5003 30.9999 43.2427 18.7498 37.5085 9.24976ZM32.273 28.4999C31.2757 29.9999 30.0292 30.9999 28.284 31.2499C27.2867 31.2499 26.0402 31.7499 21.0539 29.7499C16.8156 27.7499 13.3252 24.4999 10.8321 20.7499C9.33618 18.9998 8.58824 16.7498 8.33893 14.4998C8.33893 12.4998 9.08687 10.7498 10.3334 9.49977C10.8321 8.99976 11.3307 8.74976 11.8293 8.74976H13.0759C13.5745 8.74976 14.0731 8.74976 14.3224 9.74977C14.8211 10.9998 16.0676 13.9998 16.0676 14.2498C16.3169 14.4998 16.3169 14.9998 16.0676 15.2498C16.3169 15.7498 16.0676 16.2498 15.8183 16.4998C15.569 16.7498 15.3197 17.2498 15.0704 17.4998C14.5718 17.7498 14.3224 18.2498 14.5718 18.7498C15.569 20.2498 16.8156 21.7499 18.0621 22.9999C19.558 24.2499 21.0539 25.2499 22.7991 25.9999C23.2977 26.2499 23.7963 26.2499 24.0456 25.7499C24.295 25.2499 25.5415 23.9999 26.0402 23.4999C26.5388 22.9999 26.7881 22.9999 27.2867 23.2499L31.2757 25.2499C31.7744 25.4999 32.273 25.7499 32.5223 25.9999C32.7716 26.7499 32.7716 27.7499 32.273 28.4999Z" fill="#FF2E2E"/>
</svg>
